<?xml version="1.0" encoding="utf-8"?>
<!-- Svg Vector Icons : http://www.onlinewebfonts.com/icon -->
<!DOCTYPE svg PUBLIC "-//W3C//DTD SVG 1.1//EN" "http://www.w3.org/Graphics/SVG/1.1/DTD/svg11.dtd">
<svg version="1.1" xmlns="http://www.w3.org/2000/svg" xmlns:xlink="http://www.w3.org/1999/xlink" x="0px" y="0px" viewBox="0 0 1000 1000" enable-background="new 0 0 1000 1000" xml:space="preserve">
<metadata> Svg Vector Icons : http://www.onlinewebfonts.com/icon </metadata>
<g><g><path d="M962.4,433.8L962.4,433.8c1.3,14.4,0.1,28.1-2.9,42.3c-1.3,7.1-3.7,14.2-6.9,21.4c-3.5,7.2-7.6,14.9-16.7,21.8l-10.2,7.8l-10-8.8c-8-7.2-13.6-21.5-22.9-26c-2-1.6-4.4,0.4-1.8,1.4c2.2,0.2,2.6,0.5,3.6,2.6c1.8,3.6,4.9,8.8,8.2,13.5v0l1.3,14.1l-7.8,5.2c-5.3,3.4-8.9,5.1-13.9,6.9c-4.7,1.6-9.8,2.9-15.3,3.4c-11.1,1.2-24.6-3.6-32-11.7c-7.8-8-11-16.7-13.8-24.7c-2.5-8.1-3.6-16-4.6-23.7l-0.3-2.1l0.2-0.8c0.4-1.7,0.1-5.6-0.5-7.5c-0.7-2.2-1.6-3.3-3.2-4.4c-1.7-1-4.6-1.9-8-1.6c-3.9,0.2-9.9,0.4-14.3,0.1c-19-1-37.8-5.7-54.9-14c-8.7-4.1-16.2-9.9-24.4-15.1c-7.9-5.3-16.4-10.9-23.5-18.3c-6.8-7.4-12.5-16-16.9-25.1c-0.3-0.5-0.4-1.1-0.7-1.6c-3.6,2.9-7.1,5.8-10.5,8.9c-9.5,7.8-18.2,16.4-27,25c-8.5,8.9-16.5,18.2-23.8,28.2c-6.9,10.1-14,20.4-19.2,31.6c-6.1,10.9-10,22.7-14.6,34.4c-3.1,12-7,24.2-8.1,36.9c-2.4,12.6-2.3,25.3-2.7,38.2c-0.3,13,1.9,25.8,2.9,38.9l-4,1c-3.1-12.9-7.5-25.6-9.5-38.9l-2.8-20.1c-1.4-6.8-0.5-13.5-0.7-20.3c-0.7-13.7,1.5-27.3,3.2-41c3-13.4,5.6-27.2,11-40c4.4-13.2,10.9-25.6,17.4-38c6.9-12.2,14.8-23.7,23.2-34.9c8.6-11.1,18.1-21.3,28.5-30.8c10.7-9.4,21.4-17.5,35.2-24.5l24.1-12.4l3.2,24.9v0c1.5,7.6,1.5,15.9,3.8,23.3c1.5,7.9,5,14.8,7.8,22.4c3.4,7.2,7.1,14.8,12.8,21c6,5.8,13.5,9.8,21.2,12.9c15.5,6.2,32.5,9.1,49.2,8.8c4.6-0.1,7.5-0.3,12.5-0.9c5.4-0.6,11.7-0.5,18.2,2.1c6.5,2.6,12.3,8.3,15.1,14.4c2.8,6.3,4.1,11.6,3.9,18.7l-0.1-3c2.9,12.5,7.8,26.3,14.6,29.9c3,1.7,4.6,1.5,7.7,0.6c1.5-0.5,3.2-1.3,5-2.5c0.4-3,0.8-5.9,1.8-9.2c1.3-4.2,3.2-10.8,10.4-14.8c7.6-3.2,12.5-0.5,16.5-0.5c9,2.2,17.6,4.2,25.5,7.3c2.6-5.2,5.1-11.9,7.1-18.4c3.3-10.5,5.9-22,9-33.1c-21.4-39-51.5-74.2-81.9-108.3c-15.9-17.5-33.9-33.1-51.2-49.2c-17.5-15.9-35.4-31.6-53.6-46.5l-3.4-2.8l-0.8-6.7c-2.1-18.3-9.1-34-20.4-47.3c-5.7-6.6-12.4-12.5-19.8-17.6c-0.4-0.3-0.9-0.5-1.3-0.8c-0.7,7.5-1.3,15.2-1.8,22.8c-1.3,16.6-2,33.8-2.3,50.6l-0.2,11.6l-10.1,4.1c-16,6.5-32,13.5-46.3,23.8c-14.3,10.1-28.6,20.9-41,33.9c-25.1,25.7-46.6,56.1-62.9,89.4l-3.8-1.3c8.9-37,25.9-72.1,49.6-103c20.8-28.4,49.2-51.4,81.3-68.1c-0.5-14.3-0.8-28.4-0.5-42.7c0.8-17.9,1.3-35.1,5.7-54.8l4.8-21.7l20.1,8.7c6.6,2.9,11.1,5.5,16.4,8.6c5,3,9.9,6.3,14.5,10c9.1,7.5,17.5,16.1,24.6,25.9c13.6,17.9,19.7,41.4,18.3,63.3c2.5,2.4,4.9,4.9,7.4,7.3L990,63.1L817.4,261.7c17.2,17.7,34,35.6,50.9,53.7c33.7,34.3,65.6,70.1,92.6,111.8l1.7,2.6L962.4,433.8z M720.3,607.2c-8.7-22.5-16-46.4-20.6-70.4c-2.2-12-3.7-24.3-3.7-36.6c0-12,1.6-24.9,9-35.1c-8.8,9.1-12.2,22.3-13.9,34.8c-1.9,12.7-1.3,25.5-0.3,38.1c2.3,25.4,7.2,50,14.1,74.7l0.4,0.9c17.8,44.6,15.2,94.7,3.4,141.6c-5.8,23.6-14.1,46.7-23.5,69.2c-4.9,11.4-10.2,22.8-15.8,34l-6.5-14.5l-23.7-46.4c-17.2-30.3-35.7-59.9-57.1-87.7c-41.7-56.3-94.1-105.6-155-142.1c-60.8-36.7-130.5-57.9-200.6-63.9c-35.1-2.5-70.4-1.6-105,3.2c-34.8,4.8-68.4,12.3-102,25.2l-9.4,3.6l2.7,8.9c2.4,7.8,5.2,13.2,8.8,19.1c3.7,5.6,7.8,10.9,12.4,15.6c9.2,9.5,20,16.8,31.4,22.4c11.6,5.4,23.7,8.7,35.9,10.8c12.2,1.8,24.5,1.6,36.5,1.1c-23.9-3-47.2-10-66.5-22.4c-9.4-6.4-17.7-14.1-24.1-23c-3.4-4.4-5.9-9.2-8.2-14c-0.6-1.3-1.1-2.6-1.6-4.1c27.9-7.9,57.7-13,87.1-15.2c33-2.6,66.2-1.4,98.7,2.9c32.6,4,64.7,11.2,95.4,22c30.7,11,60.3,24.8,88.2,41.8c27.7,17.2,53.6,37.3,77.7,59.4c11.3,11.9,23.8,22.5,34.4,35.2c11.2,12,21.8,24.6,31.7,37.9c20.5,25.9,38.1,54.1,55.3,82.5l24.1,43.7l21.7,45.2l15.1,31.4l16.3-29.5c13-23.5,22.8-47,31.6-71.4c8.7-24.4,15.9-49.4,20.6-75c4.7-25.5,7.1-51.8,5.5-78.2C739.3,656.8,732.7,630.6,720.3,607.2z M415,514.4c0,0,1.3-6.2,3.6-17.1c1-5.4,2.2-11.9,3.6-19.4c0.9-7.6,4.4-15.6,6.3-24.6c2.5-8.9,4.3-18.8,8.6-28.5c4.2-9.7,7.1-20.4,12.2-30.6c5.3-10.1,9.4-21.1,15.8-31.2c6.1-10.2,11.8-20.9,19.4-30.4c13.1-20.3,30.3-37.7,46.1-54.2c16.8-15.4,32.6-30.2,48-40.5c29.8-22.2,52.6-33.9,52.6-33.9s-6.4,1-17,4.4c-10.5,3.7-25.9,8.6-42.8,17.8c-34.3,17.2-77,49-106.9,92.3c-8,10.3-13.9,22-20.3,33.2c-6.9,10.9-10.1,23.3-15.1,34.5c-4.9,11.1-6.5,23.1-9.4,33.7c-3.1,10.7-3.7,21.3-4.9,30.8c-1,9.6-2.6,18.2-1.8,26.1c0.3,7.7,0.5,14.5,0.7,20.2C414.6,508,415,514.4,415,514.4z M810.1,334c5.6-5.9-3.2-17-15.6-29c-12.4-11.9-26.9-20.3-26.9-20.3s4.1,32.9,16.6,44.8C796.6,341.4,804.5,339.9,810.1,334z M112.9,713c-8.1-6.5-15.6-13.8-21.2-21.6c-2.6-4.1-5-8.1-5.9-12.4c-0.5-2-0.8-4.1-0.8-6c0-0.4,0.1-0.8,0.1-1.2c39.9-10.1,81.1-13,122.1-9.4c42.2,4.1,83.9,14.3,124.6,27.4c20.3,6.7,40.4,14.5,60.1,23.1c19.7,8.7,39.5,17.2,58.8,27c38.5,19.6,76.6,40.8,113.4,64.4c-32.1-29.8-67.9-55.8-105.6-78.5c-37.4-23.4-77.6-42.4-119.4-57.4c-41.5-15.6-85.5-25.9-130.3-28.5c-22.4-1.3-44.9-1.2-67.3,1.6c-22.3,3.1-44.2,8.8-65.2,16.4l-3.5,1.3l-1,2.7c-1.9,4.9-1.7,7.8-1.6,11.4c0.2,3.4,1,6.7,2,9.7c2,6.2,5.6,11.2,9.1,16c7.4,9.3,16.9,15.6,26.2,21.4c19.1,11.1,39.3,19,60,24.9C148.5,735.8,129.4,725.8,112.9,713z M460,820.5c-18.4-8.8-36.7-17.9-56-24.8c-9.5-3.7-19.1-7.4-29-10.2c-9.9-2.9-19.5-6.6-29.6-8.9c-20.1-4.7-40.3-8.7-61-10.6c-10.2-1.7-20.7-1.1-31.1-1.3c-10.4-0.3-20.8-0.2-31.1,1.5c-10.3,1.7-20.8,2-30.8,5.3l-29.9,8.8l-3.5,1l-1.1,3c-1.6,4.6-1.5,7-1.4,10.3c0.5,2.9,0.6,6.2,1.8,8.8c2.3,5.2,4.7,10.2,8.3,13.9c3.2,4.1,6.7,7.9,10.9,10.5c4.1,2.8,7.8,6,12,8.4c8.7,4.1,16.9,9.1,25.7,12.2l26.7,9l-24.4-13.6c-8.2-4.2-15.3-10.2-22.8-15.2c-3.6-2.7-6.5-6.2-9.7-9.1c-3.4-2.9-5.8-6.4-8.1-9.8c-2.9-3.3-3.9-6.9-5.2-10.4c-0.7-1.7-0.3-3.3-0.6-5c0,0,0-0.1,0-0.1l24.6-4.8c9.4-2.4,19.4-1.4,28.9-2.5c9.6-1.2,19.3-0.8,29-0.1c9.7,0.5,19.4,0.5,29,2.4c19.4,2.1,38.5,6.2,57.5,11c18.9,5.3,37.9,10.3,56.4,17.4c18.6,6.5,36.9,14.1,55.1,21.8c18.1,8.2,36.3,16.2,54.1,25.2c35.5,18.2,70.6,37.5,104.9,58.7c-29.7-27.5-62.5-51.6-97-72.8C495.7,840,478.2,829.6,460,820.5z"/></g><g></g><g></g><g></g><g></g><g></g><g></g><g></g><g></g><g></g><g></g><g></g><g></g><g></g><g></g><g></g></g>
</svg>
